<mxfile host="app.diagrams.net" modified="2024-03-13T01:55:28.775Z" agent="Mozilla/5.0 (Windows NT 10.0; Win64; x64) AppleWebKit/537.36 (KHTML, like Gecko) Chrome/122.0.0.0 Safari/537.36" etag="LrNOTjob4wf-jbxVT4wi" version="24.0.5" type="device">
  <diagram name="Page-1" id="aZGuJcUTrQFO-Jv0_edq">
    <mxGraphModel dx="880" dy="2668" grid="1" gridSize="10" guides="1" tooltips="1" connect="1" arrows="1" fold="1" page="1" pageScale="1" pageWidth="850" pageHeight="1100" math="0" shadow="0">
      <root>
        <mxCell id="0" />
        <mxCell id="1" parent="0" />
        <mxCell id="yUFQOcI4ZmSizQskaNmp-1" value="USER" style="text;html=1;align=center;verticalAlign=middle;resizable=0;points=[];autosize=1;strokeColor=none;fillColor=none;" vertex="1" parent="1">
          <mxGeometry x="440" y="-1090" width="60" height="30" as="geometry" />
        </mxCell>
        <mxCell id="yUFQOcI4ZmSizQskaNmp-2" value="SISTEM" style="text;html=1;align=center;verticalAlign=middle;resizable=0;points=[];autosize=1;strokeColor=none;fillColor=none;" vertex="1" parent="1">
          <mxGeometry x="695" y="-1092" width="70" height="30" as="geometry" />
        </mxCell>
        <mxCell id="yUFQOcI4ZmSizQskaNmp-4" value="" style="ellipse;whiteSpace=wrap;html=1;" vertex="1" parent="1">
          <mxGeometry x="360" y="-1180" width="120" height="80" as="geometry" />
        </mxCell>
      </root>
    </mxGraphModel>
  </diagram>
</mxfile>
